<?xml version="1.0" encoding="UTF-8"?>
<!DOCTYPE svg PUBLIC "-//W3C//DTD SVG 1.1//EN" "http://www.w3.org/Graphics/SVG/1.1/DTD/svg11.dtd">
<!-- Creator: CorelDRAW -->
<svg xmlns="http://www.w3.org/2000/svg" xml:space="preserve" width="310mm" height="450mm" version="1.1" style="shape-rendering:geometricPrecision; text-rendering:geometricPrecision; image-rendering:optimizeQuality; fill-rule:evenodd; clip-rule:evenodd"
viewBox="0 0 31000 45000"
 xmlns:xlink="http://www.w3.org/1999/xlink"
 xmlns:xodm="http://www.corel.com/coreldraw/odm/2003">
 <defs>
  <style type="text/css">
   <![CDATA[
    .fil0 {fill:#7DC35B}
    .fil3 {fill:#262825}
    .fil2 {fill:#292929}
    .fil4 {fill:#2B2A24}
    .fil8 {fill:#8C8B8B}
    .fil7 {fill:#997C62}
    .fil11 {fill:#A8A8A8}
    .fil9 {fill:#B5B4B4}
    .fil10 {fill:#BDBDBD}
    .fil6 {fill:#C99966}
    .fil5 {fill:#D49655}
    .fil1 {fill:#E1913A}
   ]]>
  </style>
 </defs>
 <g id="Camada_x0020_1">
  <metadata id="CorelCorpID_0Corel-Layer"/>
  <g id="_2405770406688">
   <path class="fil0" d="M13663.15 30990.92c694.81,-579.54 397.38,1670.02 2553.35,1294.84 668.53,-116.33 850.26,-480.94 1124.92,-1009.87 385.78,-742.98 932.88,-341.38 736.9,361.92 -271.14,972.92 -1694.15,1620.17 -2665.34,1457.04 -543.59,-91.31 -1053.63,-298.22 -1424.53,-695.04 -328.09,-351.02 -792.62,-1019.09 -325.3,-1408.89zm3589.94 -1056.18c-702.24,-2776.37 4109.99,-2729.97 3349.92,-76.22 -1115.5,378.49 -239.89,-1277.91 -1694.02,-1268.3 -1433.05,9.48 -404.31,1412.5 -1655.9,1344.52zm-6204.35 15.75c-380.88,-1200.12 619.28,-2263.78 1875.11,-2106.52 1152.89,144.37 2168.6,1786.62 1072.45,2122.13 -636.41,-390.36 -192.23,-1580.7 -1518.36,-1368.32 -1193.45,191.14 -242.67,1348.93 -1429.2,1352.71zm-3715.59 5239.55l2100.95 0c1945.58,0 6156.03,-2060.75 7076.15,-1820.89 1662.13,433.28 436.93,1793.61 -621.6,2308.75 -539.94,262.76 -2674.2,1249.04 -2943.25,1616.73l11341.45 0 -21.55 -11614.28c-4629.28,-251.36 -12023.6,-81.04 -16932.15,-77.92l0 9587.61z"/>
   <path class="fil1" d="M22532.41 15897.92c-225.61,1268.46 1864.57,7821.97 2082.88,9726.81 120.22,1048.82 110.57,11500.64 -75.06,11923.28 -771.98,339.06 -1976.77,-158.59 -3639.07,570.13 -2314.85,1014.85 -7331.48,3248.3 -9241.89,3852.77l-195.74 0 49.75 117.49c6919.94,2069.7 14750.06,-1675.16 17616.22,-8252.6 1556.41,-3571.78 1658.36,-7597.32 271.11,-11242.55 -784.53,-2061.51 -3925.68,-6901.61 -6166.06,-7280.54l-914.49 -410.94 212.35 996.15z"/>
   <path class="fil1" d="M4527.05 37177.7l2422.4 -1797.26c32.95,-3483.62 -364.14,-7948.71 383.6,-11298.09 643.55,-2882.64 1850.03,-6667.33 2221.63,-9470.58 -4056.57,752.38 -13221.17,11863.88 -5027.63,22565.93z"/>
   <path class="fil0" d="M21013.02 10399.49l-125.44 -347.67c56.6,-2632.1 -720.9,-1188.55 836.33,-3849.09 427.98,-731.24 1745.79,-2666.21 1748.21,-3403.81 2.95,-912.83 -1890.26,-2174.66 -2710.26,-2443.98 -1152.15,-378.46 -2045.7,1511.6 -2577.05,2308.72 -4458.23,6688.38 -6692.64,5542.85 -6645.81,8786.84 12.13,840.68 -0.17,4436.32 332.59,4938.9 1743.27,989.63 1424.59,-3667.69 1424.59,-4466.84l4536.35 -1134.03c308.53,453.83 337.83,1053.32 448.26,1586.4l2655.87 1.69 76.36 -1977.13z"/>
   <path class="fil0" d="M7371.63 35540.79l-155.41 112.12 -823.24 589.42 -112.12 120.21c-3777.04,2500.73 -4639.36,2356.52 -2000.5,5621.79 1454.1,1799.31 1369.05,1779.73 3239.09,524.23 2361.62,-1585.51 1359.84,-1110.63 4256.75,-1123.06l407.57 118.32 8449.27 -3858.43 -9119.93 0c598.3,-1393.18 6141.48,-1834.28 5163.25,-3847.87 -788.61,-396.06 -3377.23,808.93 -4256.88,1100.42 -2298.02,761.54 -2585.6,642.85 -5047.85,642.85z"/>
   <path class="fil1" d="M11689.33 16686.3c-218.67,-362.39 -329.51,-1210.79 -590.41,-1479.51l-699.39 1833.91c1781.32,1229.22 1780.06,-532.38 2728.49,2870.54 827.42,251.16 1442.85,-208.64 2597.56,806.41 997.58,876.87 895.1,1518.58 1429.01,2312.5 1183.18,-1329.64 445.91,-2943.75 1203.23,-3824.43 709.76,-825.37 228.32,-1341.54 870.27,-1616.37 796.8,-341.07 1224.05,195.19 615.71,1114.68l239.42 -136.75 1201.25 2102.94c-37.62,-3919.55 1027.34,-5473.84 -3077.58,-5473.84 1.59,848.07 -167.68,1359.1 -1135.36,1254.84 -1010.6,-108.91 -1104.96,173.3 -1781.02,17 -540.99,-125.05 -1140.42,-91.05 -1818.53,-89.82 -641.03,1.13 -544.98,836.93 -1782.65,307.9z"/>
   <path class="fil1" d="M12337.62 20574.8l0 -116.93c-2746.82,-428.84 -4501.38,2639 -3223.28,4649.53 2057.7,250.36 5642.77,614.14 7144.68,-870.71 1626.57,-1608.04 -772.1,-3896.94 -3196.69,-3895.75l691.6 545.64 -1987.04 126.8 570.73 -438.58z"/>
   <path class="fil1" d="M22964.93 25134.74l1.26 -350.75 -3205.35 -5981.13 -310.69 118.02 392.06 -989.62c-820.27,-324.97 -680.9,795.37 -1242.05,1516.83 -495.55,637.15 -153.91,1412.6 -456.74,2349.36 -645.47,1996.58 -1286.43,1945.28 -2274.96,3337.29l7096.47 0z"/>
   <path class="fil2" d="M22299.15 16978.92l-99.8 -145.63 -367.89 -1905.04 -233.82 -64.46c0,2137.11 15.67,4280.28 -4.11,6416.63 -11.04,1195.57 265.44,1322.05 939.31,2217.58 384.99,511.66 989.82,1578.97 1637.08,1636.74l-1870.77 -8155.82z"/>
   <path class="fil2" d="M9543.97 16365.61l-106.22 157.53 -368.29 1830.13 -99.39 154.78 -1525.42 6625.4 1291.56 1.29c-770.45,-1685.99 -111.23,-3686.45 1403.08,-4676.87 0,-1383.9 -399.94,-1655.64 -454.86,-2709.66 -36.06,-692.2 266.77,-681.89 335.18,-1268.46 48.82,-418.76 2.75,-1178.94 2.75,-1634.12 -392.05,441 -309.85,928.7 -478.39,1519.98z"/>
   <path class="fil0" d="M18206.89 14845.63l1636.91 0c1553.72,0 1519.98,2083.51 1519.98,-1403.09 0,-333.98 -47.36,-412.83 -116.93,-701.51l-3039.96 0 0 2104.6z"/>
   <path class="fil0" d="M16686.9 16014.82l931.03 148.61c400.2,-813.13 238.13,-1829.7 238.2,-2720.89 0.07,-673.24 357.98,-2359.07 -684.37,-2224.08 -790.14,102.32 -512.7,1142.72 -581.4,1884.3 -85.78,925.26 -110.1,2054.35 96.54,2912.06z"/>
   <path class="fil0" d="M15049.99 16014.82c584.98,270.75 594.09,291.36 1169.23,0 0,-835.57 379.62,-4338.12 -385.52,-4548.81 -1071.52,-295.04 -784.54,1155.44 -783.74,1859.57 1.03,896.39 0.03,1792.85 0.03,2689.24z"/>
   <path class="fil0" d="M12126.96 19405.57zm210.66 1052.3l-210.66 -1052.3zm210.66 1052.3l0 116.93 373.95 0c-159.09,-656.6 -425.52,-512.63 -584.61,-1169.23 441.8,290.04 170.92,309.33 584.61,467.69 -0.4,-760.28 -145.27,-1338.83 -744.89,-1827.42 -418.4,-340.91 -1379.62,-729.29 -1859.21,-542.82 -209.56,562.7 79.71,1882.7 1313.4,2491.8 508.49,251.1 723.65,140.07 916.75,463.05z"/>
   <path class="fil3" d="M13663.15 30990.92c-467.32,389.8 -2.79,1057.87 325.3,1408.89 370.9,396.82 880.94,603.73 1424.53,695.04 971.19,163.13 2394.2,-484.12 2665.34,-1457.04 195.98,-703.3 -351.12,-1104.9 -736.9,-361.92 -274.66,528.93 -456.39,893.54 -1124.92,1009.87 -2155.97,375.18 -1858.54,-1874.38 -2553.35,-1294.84z"/>
   <path class="fil0" d="M14582.31 16014.82c222.36,-922.94 314.96,-3122.76 -116.93,-3975.33 -1314.16,-2.46 -652.53,107.65 -823.91,2332.98 -82.09,1066.42 -767.56,2053.96 940.84,1642.35z"/>
   <path class="fil4" d="M17253.09 29934.74c1251.59,67.98 222.85,-1335.04 1655.9,-1344.52 1454.13,-9.61 578.52,1646.79 1694.02,1268.3 760.07,-2653.75 -4052.16,-2700.15 -3349.92,76.22z"/>
   <path class="fil3" d="M11048.74 29950.49c1186.53,-3.78 235.75,-1161.57 1429.2,-1352.71 1326.13,-212.38 881.95,977.96 1518.36,1368.32 1096.15,-335.51 80.44,-1977.76 -1072.45,-2122.13 -1255.83,-157.26 -2255.99,906.4 -1875.11,2106.52z"/>
   <path class="fil0" d="M10373.12 15547.14c1105.66,-731.48 1131.74,-1505.77 818.47,-2806.11 -917.77,-1.72 -841.77,-23.5 -825.4,928.04 10.77,625.91 6.93,1251.89 6.93,1878.07z"/>
   <path class="fil5" d="M22532.41 15897.92l-212.35 -996.15 914.49 410.94c-163.33,-265.24 -123.86,-271.21 -466.92,-472.35 -303.89,-178.22 -364.58,-199.26 -702.31,-228.59 129.76,545.1 253.98,546.86 213.84,1179.23l253.25 106.92z"/>
   <path class="fil6" d="M11513.28 42088.4l-49.75 -117.49 195.74 0c-252.81,-320.86 108.38,-103.01 -242.14,-216.69 -88.19,-28.6 -354.93,-16.97 -459.4,-16.57 201.48,282.68 222.79,259.14 555.55,350.75z"/>
   <polygon class="fil7" points="10490.05,20224.01 10844.31,20116.29 10520.47,19828.64 "/>
   <polygon class="fil6" points="22964.93,25134.74 23351.44,25134.74 22966.19,24783.99 "/>
   <path class="fil8" d="M21831.46 14928.25l0 -199.55c-471.49,0 -50.67,-24.99 -233.82,135.09l233.82 64.46z"/>
   <path class="fil9" d="M12183.77 41503.82l-407.57 -118.32c196.58,180.93 -68.27,114.74 407.57,118.32z"/>
   <path class="fil10" d="M21013.02 10399.49c-4.27,-431.72 15.68,-204.36 -125.44,-347.67l125.44 347.67z"/>
   <polygon class="fil11" points="7371.63,35540.79 7216.22,35652.91 "/>
   <polygon class="fil9" points="9069.46,18353.27 8970.07,18508.05 "/>
   <polygon class="fil11" points="22299.15,16978.92 22199.35,16833.29 "/>
   <polygon class="fil11" points="9543.97,16365.61 9437.75,16523.14 "/>
   <polygon class="fil11" points="6392.98,36242.33 6280.86,36362.54 "/>
  </g>
 </g>
</svg>
